<?xml version="1.0" standalone="no"?><!DOCTYPE svg PUBLIC "-//W3C//DTD SVG 1.1//EN" "http://www.w3.org/Graphics/SVG/1.1/DTD/svg11.dtd"><svg t="1571622516937" class="icon" viewBox="0 0 1024 1024" version="1.1" xmlns="http://www.w3.org/2000/svg" p-id="3123" xmlns:xlink="http://www.w3.org/1999/xlink" width="200" height="200"><defs><style type="text/css"></style></defs><path d="M320 757.7l-28 28c-7.3 7.3-18.5 7.3-25.8 0L5.5 524.9c-7.3-7.3-7.3-18.5 0-25.8l260.8-260.8c7.3-7.3 18.5-7.3 25.8 0l28 28c7.3 7.3 7.3 18.5 0 25.8L100 512l220 220c7.3 7.3 7.3 18.5 0 25.7z m360.8-597.2L472 883.1c-2.8 9.5-12.9 15.1-21.8 12.3l-34.7-9.5c-9.5-2.8-15.1-12.9-12.3-22.4L612 140.9c2.8-9.5 12.9-15.1 21.8-12.3l34.7 9.5c9.5 2.8 15.1 12.9 12.3 22.4z m337.7 364.4L757.7 785.7c-7.3 7.3-18.5 7.3-25.8 0l-28-28c-7.3-7.3-7.3-18.5 0-25.8l220-220L704 292c-7.3-7.3-7.3-18.5 0-25.8l28-28c7.3-7.3 18.5-7.3 25.8 0L1018.6 499c7.2 7.4 7.2 18.6-0.1 25.9z" p-id="3124"></path></svg>