<?xml version="1.0" standalone="no"?><!DOCTYPE svg PUBLIC "-//W3C//DTD SVG 1.1//EN" "http://www.w3.org/Graphics/SVG/1.1/DTD/svg11.dtd"><svg t="1572598257077" class="icon" viewBox="0 0 1024 1024" version="1.1" xmlns="http://www.w3.org/2000/svg" p-id="1855" xmlns:xlink="http://www.w3.org/1999/xlink" width="200" height="200"><defs><style type="text/css"></style></defs><path d="M858.88 269.984c-210.88-99.36-388.672 101.088-472.352 0-33.12-41.824 40.096-116.768 0-169.088-29.632-36.608-99.36-29.632-144.672 0C121.6 186.304 41.408 325.76 41.408 482.624c0 257.952 210.912 465.376 472.352 465.376 217.888 0 400.896-144.672 456.64-338.144 17.44-69.728 38.336-264.928-111.552-339.872z m49.696 323.328c-49.952 171.2-212.128 290.688-394.816 290.688-225.152 0-408.352-180.064-408.352-401.376 0-128.736 64.416-251.52 172.352-328.736a93.248 93.248 0 0 1 46.464-13.888c4.864 0 8.352 0.576 10.624 1.152-0.544 8.256-5.344 24.192-8.384 34.272-10.624 35.136-26.624 88.192 9.824 134.272l0.864 1.088c28.864 34.88 67.52 52.576 114.912 52.576 40.544 0 82.176-12.992 126.24-26.752 49.024-15.296 99.712-31.136 152.672-31.136a231.04 231.04 0 0 1 99.872 22.08c123.232 62.336 81.856 248.512 77.696 265.76z" p-id="1856"></path><path d="M346.304 442.368c0-38.336-31.36-69.728-69.728-69.728s-69.728 31.36-69.728 69.728c0 38.336 31.392 69.728 69.728 69.728s69.728-31.36 69.728-69.728zM346.304 571.36c-38.336 0-69.728 31.36-69.728 69.728s31.36 69.728 69.728 69.728c38.336 0 69.728-31.36 69.728-69.728s-31.36-69.728-69.728-69.728zM552.128 641.088c-38.336 0-69.728 31.36-69.728 69.728s31.36 69.728 69.728 69.728c38.336 0 69.728-31.36 69.728-69.728s-31.36-69.728-69.728-69.728zM700.896 383.104c-57.504 0-104.576 47.072-104.576 104.576s47.072 104.576 104.576 104.576c59.264 0 104.576-47.072 104.576-104.576s-47.072-104.576-104.576-104.576z" p-id="1857"></path></svg>