<?xml version="1.0" standalone="no"?><!DOCTYPE svg PUBLIC "-//W3C//DTD SVG 1.1//EN" "http://www.w3.org/Graphics/SVG/1.1/DTD/svg11.dtd"><svg t="1570851279047" class="icon" viewBox="0 0 1024 1024" version="1.1" xmlns="http://www.w3.org/2000/svg" p-id="14252" xmlns:xlink="http://www.w3.org/1999/xlink" width="200" height="200"><defs><style type="text/css"></style></defs><path d="M903.640615 161.240615c17.250462 17.250462 25.836308 38.124308 25.836308 62.779077v494.749539c0 24.654769-8.664615 45.528615-25.836308 62.779077a85.464615 85.464615 0 0 1-62.779077 25.836307H693.169231v88.615385c0 24.576-8.664615 45.528615-25.836308 62.779077a85.464615 85.464615 0 0 1-62.779077 25.836308h-413.538461c-24.654769 0-45.528615-8.664615-62.779077-25.836308a85.464615 85.464615 0 0 1-25.836308-62.779077v-590.769231c0-24.576 8.664615-45.528615 25.836308-62.779077 17.250462-17.250462 38.124308-25.836308 62.779077-25.836307H338.707692V128c0-24.576 8.664615-45.528615 25.836308-62.779077C381.794462 48.049231 402.668308 39.384615 427.323077 39.384615h317.518769c24.654769 0 45.528615 8.664615 62.779077 25.836308l96.019692 96.019692z m-310.19323 734.759385c2.520615 0 4.962462-1.260308 7.404307-3.702154s3.702154-4.883692 3.702154-7.404308v-77.508923h-177.230769c-24.654769 0-45.528615-8.664615-62.779077-25.836307a85.464615 85.464615 0 0 1-25.836308-62.779077v-413.538462H202.121846c-2.520615 0-4.962462 1.260308-7.404308 3.702154s-3.702154 4.883692-3.702153 7.404308v568.556307c0 2.520615 1.260308 4.962462 3.702153 7.404308s4.883692 3.702154 7.404308 3.702154h391.325539z m236.307692-177.230769c2.520615 0 4.962462-1.260308 7.404308-3.702154s3.702154-4.883692 3.702153-7.404308V334.769231H678.360615a42.692923 42.692923 0 0 1-31.350153-12.918154 42.692923 42.692923 0 0 1-12.918154-31.350154V128H438.429538c-2.520615 0-4.962462 1.260308-7.404307 3.702154s-3.702154 4.883692-3.702154 7.404308v568.556307c0 2.520615 1.260308 4.962462 3.702154 7.404308s4.883692 3.702154 7.404307 3.702154h391.325539z m11.106461-472.615385v-18.432c0-2.520615-1.260308-4.962462-3.702153-7.404308L748.544 131.702154c-2.441846-2.441846-4.883692-3.702154-7.404308-3.702154h-18.432v118.153846h118.153846z" p-id="14253"></path></svg>