<?xml version="1.0" standalone="no"?><!DOCTYPE svg PUBLIC "-//W3C//DTD SVG 1.1//EN" "http://www.w3.org/Graphics/SVG/1.1/DTD/svg11.dtd"><svg t="1571194474618" class="icon" viewBox="0 0 1024 1024" version="1.1" xmlns="http://www.w3.org/2000/svg" p-id="14375" xmlns:xlink="http://www.w3.org/1999/xlink" width="200" height="200"><defs><style type="text/css"></style></defs><path d="M1024 739c0 157.4-127.6 285-285 285S454 896.4 454 739s127.6-285 285-285 285 127.6 285 285zM252 223c19.3 0 35-14.7 35-32.8V32.8C287 14.7 271.3 0 252 0s-35 14.7-35 32.8v157.3c0 18.2 15.7 32.9 35 32.9z m520 0c19.3 0 35-14.7 35-32.8V32.8C807 14.7 791.3 0 772 0s-35 14.7-35 32.8v157.3c0 18.2 15.7 32.9 35 32.9zM481.9 969H100c-24.8 0-45-20.2-45-45V391.3h914v90.6c20.7 18.6 39.2 39.6 55 62.7V184c0-55.2-44.8-100-100-100h-90v106.2c0 33-27.8 59.8-62 59.8s-62-26.8-62-59.8V84H314v106.2c0 33-27.8 59.8-62 59.8s-62-26.8-62-59.8V84h-90C44.8 84 0 128.8 0 184v740c0 55.2 44.8 100 100 100h444.6c-23.1-15.8-44.2-34.3-62.7-55zM225 471c-41.4 0-75 33.6-75 75s33.6 75 75 75 75-33.6 75-75c0-41.5-33.6-75-75-75z m0 269c-41.4 0-75 33.6-75 75s33.6 75 75 75 75-33.6 75-75c0-41.5-33.6-75-75-75z m642.3 41.3l-100.8-58.2V564.3c0-15.2-12.3-27.5-27.5-27.5s-27.5 12.3-27.5 27.5v173.3c0 2.8 0.4 5.5 1.2 8.1 1.7 7.1 6.2 13.4 13 17.3l114.1 66c4.3 2.5 9.1 3.7 13.7 3.7 9.5 0 18.7-4.9 23.8-13.8 7.7-13.1 3.2-30-10-37.6z" p-id="14376"></path></svg>