<?xml version="1.0" standalone="no"?><!DOCTYPE svg PUBLIC "-//W3C//DTD SVG 1.1//EN" "http://www.w3.org/Graphics/SVG/1.1/DTD/svg11.dtd"><svg t="1570672958008" class="icon" viewBox="0 0 1024 1024" version="1.1" xmlns="http://www.w3.org/2000/svg" p-id="9666" xmlns:xlink="http://www.w3.org/1999/xlink" width="200" height="200"><defs><style type="text/css"></style></defs><path d="M992 820H32c-15.52 0-28-12.48-28-28v-560c0-15.52 12.48-28 28-28h960c15.52 0 28 12.48 28 28v560c0 15.52-12.48 28-28 28z m-932-56h904v-504H60v504z" p-id="9667"></path><path d="M156.48 700c-15.52 0-28-12.48-28-28V352c0-15.52 12.48-28 28-28s28 12.48 28 28v320c0 15.52-12.48 28-28 28z" p-id="9668"></path></svg>