<?xml version="1.0" standalone="no"?><!DOCTYPE svg PUBLIC "-//W3C//DTD SVG 1.1//EN" "http://www.w3.org/Graphics/SVG/1.1/DTD/svg11.dtd"><svg t="1570851043891" class="icon" viewBox="0 0 1024 1024" version="1.1" xmlns="http://www.w3.org/2000/svg" p-id="13377" xmlns:xlink="http://www.w3.org/1999/xlink" width="200" height="200"><defs><style type="text/css"></style></defs><path d="M186 544l42 41q12 14 7.5 31.5t-22 22T183 631l-96-96q-10-10-10-23t10-23l96-96q13-12 30.5-7.5t22 22T228 439l-42 41h291V186l-41 42q-13 13-31.5 8.5t-23-22.5 9.5-31l96-96q9-10 22-10t23 10l96 96q9 10 8.5 22t-10 21.5-21.5 10-22-8.5l-42-41v293h291l-41-41q-10-10-10-23t9.5-22.5T813 384t23 9l96 96q9 10 9 23t-9 23l-96 96q-10 9-23 9t-22.5-9.5T781 608t10-23l41-41H541v293l42-41q13-13 30.5-8t22.5 22.5-8 30.5l-96 96q-10 10-23 10t-22-10l-96-96q-10-9-10-22t9.5-22.5T413 787t23 9l41 42V544H186z" p-id="13378"></path></svg>