<?xml version="1.0" standalone="no"?><!DOCTYPE svg PUBLIC "-//W3C//DTD SVG 1.1//EN" "http://www.w3.org/Graphics/SVG/1.1/DTD/svg11.dtd"><svg t="1571041988627" class="icon" viewBox="0 0 1024 1024" version="1.1" xmlns="http://www.w3.org/2000/svg" p-id="8371" xmlns:xlink="http://www.w3.org/1999/xlink" width="200" height="200"><defs><style type="text/css"></style></defs><path d="M102.4 230.4m-76.8 0a76.8 76.8 0 1 0 153.6 0 76.8 76.8 0 1 0-153.6 0Z" p-id="8372"></path><path d="M896 307.2H307.2a76.8 76.8 0 1 1 0-153.6h588.8a76.8 76.8 0 1 1 0 153.6z" p-id="8373"></path><path d="M102.4 537.6m-76.8 0a76.8 76.8 0 1 0 153.6 0 76.8 76.8 0 1 0-153.6 0Z" p-id="8374"></path><path d="M896 614.4H307.2a76.8 76.8 0 1 1 0-153.6h588.8a76.8 76.8 0 1 1 0 153.6z" p-id="8375"></path><path d="M102.4 844.8m-76.8 0a76.8 76.8 0 1 0 153.6 0 76.8 76.8 0 1 0-153.6 0Z" p-id="8376"></path><path d="M896 921.6H307.2a76.8 76.8 0 1 1 0-153.6h588.8a76.8 76.8 0 1 1 0 153.6z" p-id="8377"></path></svg>